**ABCDEFGHIJKLMNOPQRSTUVWXYZabcdefghijklmnopqrstuvwxyz**************************
**PARASOLID !"#$%&'()*+,-./:;<=>?@[\]^_`{|}~0123456789**************************
**PART1;
MC=AMD64;
MC_MODEL=Intel64 Family 6 Model 186 Stepping 2, GenuineIntel;
MC_ID=unknown;
OS=Windows_NT;
OS_RELEASE=unknown;
FRU=Parasolid Version 35.1, build 251, 11- 4-2023;
APPL=SOLIDWORKS 2024-2024157;
SITE=;
USER=unknown;
FORMAT=text;
GUISE=transmit;
KEY=makeProjectedPlanarWire;
FILE=makeProjectedPlanarWire.x_t;
DATE=Mon Apr 14 18:41:05 2025;
**PART2;
SCH=SCH_3501251_35102;
USFLD_SIZE=0;
**PART3;
**END_OF_HEADER*****************************************************************
T51 : TRANSMIT FILE created by modeller version 350125123 SCH_3501251_35102_1300
6231 0 12 36 CCCI7 lattice222 0 CCCI4 mesh1006 0 I8 polyline1008 0 CCCCCCCDI5 ow
ner1040 0 CCCI16 boundary_lattice222 0 CCCI13 boundary_mesh1006 0 I17 boundary_p
olyline1008 0 CCCA16 index_map_offset0 0 1 dA9 index_map82 0 A17 node_id_index_m
ap82 0 A20 schema_embedding_map82 0 A5 child12 0 A14 lowest_node_id0 0 1 dA16 me
sh_offset_data206 0 Z1 218 0 0 0 0 0 0 0 0 0 1e3 1e-8 0 2 0 1 0 3 1 3 0 4 5 6 0
 0 7 8 9 0 0 0 0 0 0 0 13 255 3 22 0 1 0 10 0 0 7 10 50 255 4 3 0 10 0 0 0 +.011
1125 0 0 1 0 0 0 0 -1 31 255 5 17 0 8 11 0 0 +.0111125 .01905 0 1 0 0 0 0 -1 .01
11125 29 255 6 218 0 9 12 0 .0111125 .0243335193690453 .003522346246030205 19 9
 CCCCCCI5 frame230 0 CA5 owner12 0 Z7 21 0 1 0 0 3 0 V0 16 255 8 15 0 ?13 0 14 5
 0 0 1 18 255 9 180 0 15 0 16 6 ?1 17 255 15 0 17 18 19 9 20 21 0 22 -18 16 141
 0 20 9 23 12 ?1 17 20 0 0 0 0 16 15 21 0 19 +18 23 102 0 24 16 25 26 ?1 29 12 1
79 0 16 26 6 .0111125 .0137664806309547 .003522346246030205 29 26 140 0 23 27 12
 .0111125 .0137664806309547 -.003522346246030205 29 27 101 0 25 0 26 .0111125 .0
243335193690453 -.003522346246030205 18 25 100 0 28 23 0 27 ?1 17 28 0 0 0 0 25
 29 30 0 18 +17 29 0 17 19 18 23 28 30 0 0 -16 30 103 0 ?28 31 0 11 14 31 1 17 1
8 0 17 29 15 25 22 14 0 0 -15 255 17 7 0 18 10 32 17 22 0 0 0 0 9 18 14 0 0 +16
 14 9 0 ?22 8 21 11 21 30 1 16 21 181 0 ?20 14 31 11 31 14 1 31 11 11 0 14 0 5 0
 +.0111125 .01905 0 1 0 0 0 0 -1 .00635 16 31 142 0 ?24 21 30 11 30 21 1 17 24 0
 0 0 0 23 19 31 0 29 +17 19 0 17 15 29 16 24 31 0 0 -14 255 10 1 0 ?0 0 17 3 4 +
0 0 0 0 3 15 32 8 0 13 10 0 17 13 0 32 13 13 0 33 8 0 0 +17 33 0 0 0 0 0 13 8 0
 0 -1 0 
